<mxfile host="Electron" agent="Mozilla/5.0 (X11; Linux x86_64) AppleWebKit/537.36 (KHTML, like Gecko) draw.io/26.2.2 Chrome/134.0.6998.178 Electron/35.1.2 Safari/537.36" version="26.2.2">
  <diagram name="Page-1" id="B1esnuK5y9efq1NkErU5">
    <mxGraphModel dx="2260" dy="849" grid="1" gridSize="10" guides="1" tooltips="1" connect="1" arrows="1" fold="1" page="1" pageScale="1" pageWidth="850" pageHeight="1100" math="0" shadow="0">
      <root>
        <mxCell id="0" />
        <mxCell id="1" parent="0" />
        <mxCell id="lNbrN2yCnvoR2e0JQ5Sy-12" value="" style="rounded=0;whiteSpace=wrap;html=1;fillColor=#e1d5e7;strokeColor=none;" vertex="1" parent="1">
          <mxGeometry x="360" y="40" width="160" height="440" as="geometry" />
        </mxCell>
        <mxCell id="lNbrN2yCnvoR2e0JQ5Sy-15" value="&lt;font style=&quot;font-size: 24px;&quot;&gt;&lt;b&gt;Timer ISR&lt;/b&gt;&lt;/font&gt;" style="rounded=0;whiteSpace=wrap;html=1;fillColor=#f8cecc;strokeColor=none;verticalAlign=top;" vertex="1" parent="1">
          <mxGeometry x="440" y="130" width="640" height="230" as="geometry" />
        </mxCell>
        <mxCell id="lNbrN2yCnvoR2e0JQ5Sy-18" value="" style="rounded=0;whiteSpace=wrap;html=1;fillColor=#fff2cc;strokeColor=#d6b656;" vertex="1" parent="1">
          <mxGeometry x="440" y="160" width="200" height="200" as="geometry" />
        </mxCell>
        <mxCell id="lNbrN2yCnvoR2e0JQ5Sy-13" value="&lt;font style=&quot;font-size: 25px;&quot;&gt;&lt;b&gt;Timer Event Specific Code&lt;/b&gt;&lt;/font&gt;" style="rounded=0;whiteSpace=wrap;html=1;fillColor=#dae8fc;strokeColor=none;" vertex="1" parent="1">
          <mxGeometry x="640" y="220" width="440" height="140" as="geometry" />
        </mxCell>
        <mxCell id="lNbrN2yCnvoR2e0JQ5Sy-10" value="CPU enters Timer ISR anywhere&lt;div&gt;within IRQ Jitter Window&lt;/div&gt;" style="endArrow=none;html=1;rounded=0;fontSize=24;fontStyle=1;labelBackgroundColor=none;entryX=0.5;entryY=0.205;entryDx=0;entryDy=0;entryPerimeter=0;" edge="1" parent="1" target="lNbrN2yCnvoR2e0JQ5Sy-12">
          <mxGeometry x="1" y="40" width="50" height="50" relative="1" as="geometry">
            <mxPoint x="440" y="360" as="sourcePoint" />
            <mxPoint x="440" y="150" as="targetPoint" />
            <mxPoint x="40" y="-40" as="offset" />
          </mxGeometry>
        </mxCell>
        <mxCell id="lNbrN2yCnvoR2e0JQ5Sy-1" value="t" style="endArrow=classic;html=1;rounded=0;fontSize=24;fontStyle=1;entryX=1;entryY=1;entryDx=0;entryDy=0;" edge="1" parent="1" target="lNbrN2yCnvoR2e0JQ5Sy-13">
          <mxGeometry x="1" y="-20" width="50" height="50" relative="1" as="geometry">
            <mxPoint x="40" y="360" as="sourcePoint" />
            <mxPoint x="800" y="360" as="targetPoint" />
            <mxPoint as="offset" />
          </mxGeometry>
        </mxCell>
        <mxCell id="lNbrN2yCnvoR2e0JQ5Sy-2" value="MTIMER_CMP =&amp;nbsp;&lt;div&gt;&lt;span style=&quot;color: light-dark(rgb(0, 0, 0), rgb(255, 255, 255));&quot;&gt;TARGET_TIME -&amp;nbsp;&lt;/span&gt;&lt;/div&gt;&lt;div&gt;&lt;span style=&quot;color: light-dark(rgb(0, 0, 0), rgb(255, 255, 255));&quot;&gt;IRQ_LATENCY_AND_JITTER_MARGIN&lt;/span&gt;&lt;div&gt;=&amp;gt; MTIMER IRQ fires at this time.&lt;/div&gt;&lt;/div&gt;" style="endArrow=none;html=1;rounded=0;fontSize=24;fontStyle=1;align=center;labelBackgroundColor=default;" edge="1" parent="1">
          <mxGeometry x="-0.0417" width="50" height="50" relative="1" as="geometry">
            <mxPoint x="80" y="480" as="sourcePoint" />
            <mxPoint x="80" as="targetPoint" />
            <mxPoint as="offset" />
          </mxGeometry>
        </mxCell>
        <mxCell id="lNbrN2yCnvoR2e0JQ5Sy-4" value="" style="endArrow=none;html=1;rounded=0;exitX=0;exitY=1;exitDx=0;exitDy=0;" edge="1" parent="1" source="lNbrN2yCnvoR2e0JQ5Sy-12">
          <mxGeometry width="50" height="50" relative="1" as="geometry">
            <mxPoint x="360" y="440" as="sourcePoint" />
            <mxPoint x="360" y="340" as="targetPoint" />
          </mxGeometry>
        </mxCell>
        <mxCell id="lNbrN2yCnvoR2e0JQ5Sy-5" value="" style="endArrow=none;html=1;rounded=0;" edge="1" parent="1">
          <mxGeometry width="50" height="50" relative="1" as="geometry">
            <mxPoint x="520" y="480" as="sourcePoint" />
            <mxPoint x="520" y="340" as="targetPoint" />
          </mxGeometry>
        </mxCell>
        <mxCell id="lNbrN2yCnvoR2e0JQ5Sy-6" value="IRQ Jitter Window" style="endArrow=classic;startArrow=classic;html=1;rounded=0;fontSize=23;fontStyle=1;labelBackgroundColor=none;" edge="1" parent="1">
          <mxGeometry y="-21" width="50" height="50" relative="1" as="geometry">
            <mxPoint x="360" y="479" as="sourcePoint" />
            <mxPoint x="520" y="479" as="targetPoint" />
            <mxPoint as="offset" />
          </mxGeometry>
        </mxCell>
        <mxCell id="lNbrN2yCnvoR2e0JQ5Sy-7" value="&lt;font style=&quot;font-size: 24px;&quot;&gt;&lt;b&gt;Minimum IRQ Latency&lt;/b&gt;&lt;/font&gt;" style="endArrow=classic;startArrow=classic;html=1;rounded=0;" edge="1" parent="1">
          <mxGeometry width="50" height="50" relative="1" as="geometry">
            <mxPoint x="80" y="400" as="sourcePoint" />
            <mxPoint x="360" y="400" as="targetPoint" />
          </mxGeometry>
        </mxCell>
        <mxCell id="lNbrN2yCnvoR2e0JQ5Sy-8" value="&lt;font style=&quot;font-size: 24px;&quot;&gt;Maximum IRQ Latency&lt;/font&gt;" style="endArrow=classic;startArrow=classic;html=1;rounded=0;fontStyle=1;labelBackgroundColor=default;" edge="1" parent="1">
          <mxGeometry width="50" height="50" relative="1" as="geometry">
            <mxPoint x="80" y="440" as="sourcePoint" />
            <mxPoint x="520" y="440" as="targetPoint" />
            <mxPoint as="offset" />
          </mxGeometry>
        </mxCell>
        <mxCell id="lNbrN2yCnvoR2e0JQ5Sy-9" value="&lt;font style=&quot;font-size: 24px;&quot;&gt;TARGET_TIME:&amp;nbsp;&lt;/font&gt;&lt;span style=&quot;font-size: 24px; background-color: transparent; color: light-dark(rgb(0, 0, 0), rgb(255, 255, 255));&quot;&gt;Timer Event&lt;/span&gt;&lt;div&gt;&lt;font style=&quot;font-size: 24px;&quot;&gt;Specific code starts executing&lt;/font&gt;&lt;/div&gt;&lt;div&gt;&lt;font style=&quot;font-size: 24px;&quot;&gt;exactly at this time.&lt;/font&gt;&lt;/div&gt;&lt;div&gt;&lt;font style=&quot;font-size: 24px;&quot;&gt;&lt;br&gt;&lt;/font&gt;&lt;/div&gt;" style="endArrow=none;html=1;rounded=0;fontStyle=1;labelBackgroundColor=none;align=left;" edge="1" parent="1">
          <mxGeometry x="-1" y="76" width="50" height="50" relative="1" as="geometry">
            <mxPoint x="640" y="400" as="sourcePoint" />
            <mxPoint x="640" as="targetPoint" />
            <mxPoint x="46" y="70" as="offset" />
          </mxGeometry>
        </mxCell>
        <mxCell id="lNbrN2yCnvoR2e0JQ5Sy-11" value="&lt;div&gt;&lt;div&gt;*MTIMEBLK =&amp;nbsp;&lt;/div&gt;&lt;div&gt;TARGET_TIME&lt;div&gt;blocks until&amp;nbsp;&lt;/div&gt;&lt;div&gt;TARGET time.&lt;/div&gt;&lt;/div&gt;&lt;/div&gt;" style="endArrow=classic;startArrow=none;html=1;rounded=0;fontSize=24;fontStyle=1;labelBackgroundColor=none;align=center;startFill=0;" edge="1" parent="1">
          <mxGeometry y="77" width="50" height="50" relative="1" as="geometry">
            <mxPoint x="440" y="317" as="sourcePoint" />
            <mxPoint x="640" y="317" as="targetPoint" />
            <mxPoint as="offset" />
          </mxGeometry>
        </mxCell>
        <mxCell id="lNbrN2yCnvoR2e0JQ5Sy-17" value="&lt;font style=&quot;font-size: 23px;&quot;&gt;&lt;b&gt;IRQ_LATENCY_AND_JITTER_MARGIN&lt;/b&gt;&lt;/font&gt;" style="endArrow=classic;startArrow=classic;html=1;rounded=0;" edge="1" parent="1">
          <mxGeometry y="20" width="50" height="50" relative="1" as="geometry">
            <mxPoint x="80" y="40" as="sourcePoint" />
            <mxPoint x="640" y="40" as="targetPoint" />
            <mxPoint as="offset" />
          </mxGeometry>
        </mxCell>
      </root>
    </mxGraphModel>
  </diagram>
</mxfile>
